<?xml version="1.0" encoding="utf-8"?>
<!-- Generator: Adobe Illustrator 21.1.0, SVG Export Plug-In . SVG Version: 6.00 Build 0)  -->
<svg version="1.1" id="Layer_1" xmlns="http://www.w3.org/2000/svg" xmlns:xlink="http://www.w3.org/1999/xlink" x="0px" y="0px"
	 viewBox="0 0 252 264.3" style="enable-background:new 0 0 252 264.3;" xml:space="preserve">
<style type="text/css">
	.st0{enable-background:new    ;}
	.st1{fill:#6EA36F;}
	.st2{fill:none;}
</style>
<g class="st0">
	<path class="st1" d="M55.1,108c0.2-0.2,0.2-0.2,0.4-0.2c0.2,0.2-2,3.6-2.3,3.4c-0.2,0,0.2-0.4,0.4-0.7c-3,4.4-5,9.1-6.8,14
		c1.2-3.2,3.6-8.9,4.4-9.4c-0.7,0.7-4.4,10.5-4.6,11.4c-1.4,3.9-2.5,8-3,12.1c-0.7,4.1-1.1,8.4-1.6,12.4c-0.4,3.2-1.2,7.1-0.9,10
		c0-0.4,0-0.7,0.2-1.2c0.2,0,0.7,4.4,1.4,4.8c0.4,0.2,0.5-0.2,0.9-0.2c1.8-0.4,3.7-3,4.8-4.3c0.7-0.7,2-3.2,2.8-3.6
		c3.6-1.6-0.7,9.2-1.6,10.5c-1.6,2.1-3,3.7-5.9,3.7c-2.3,0-4.6-0.9-6.4-2.3c-3.2-2.8-4.6-7.3-4.8-11.4c0-1.8,0.4-3.2,0.5-5
		c0-0.4-0.2-3.4,0.2-3.6c0,0.2,0.2,0.2,0.2,0.4c0-0.2-0.2-0.4,0-0.5c-0.2,0-0.4-1.8-0.4-2c0.2-1.2,0.4-2.5,0.5-3.7
		c0.4-2,0.5-3.7,0.7-5.5c0-0.7,1.8-9.1,2.8-9.1c0.2,0-0.2,0.7,0,0.7l0.7-2.8c-5.3,8.5-10.7,17.2-16.5,25.4c-2,2.5-5.3,8-8.9,8.2
		c-3.2,0.2-6.2-3.2-7.8-5.7c0,0-1.2-1.2-1.2-1.6c0.2,0.4,1.1,1.2,1.1,1.2l-1.2-2.1c0,1.1-0.7-0.5-0.9-0.5c-0.4-0.7-0.5-1.4-0.7-2.1
		C1,147.1,1,145.2,1,143.6c0.2-3.6,1.1-6.9,1.8-10.5c0.5-3.6,1.8-6.9,3.2-10.1c0.4-0.5,3-7.3,3.7-7.3c0,0-0.5,1.2-0.4,1.4
		c0.5-1.6,1.4-3.2,2.1-4.8c-0.4,0.4-0.7,0.9-0.7,0.9c0.2-1.6,2-3.7,2.7-5l3-5.9c2.3-3.9,5-7.6,8-11.2c2.5-3,5.5-6.4,9.4-7.8
		c2-0.7,4.1-0.4,6.2,0.2c3.7,0.7,7.5,3.4,10.1,5.7c1.1,1.1,3.2,2.5,3.2,4.3c0,1.4-1.6,2.8-2.8,3.6c-2.5,1.6-3.2,0.7-3.9-1.6
		c0,0.2,0.4,1.1,0.2,1.2c-0.2,0.2-1.1-3-1.2-3.6c-0.2-0.5-0.4-1.2-0.7-2c0.4,0.5,0.5,0.7,0.7,1.1c-0.4-1.2-1.1-2-1.6-2.3
		c-1.1-0.4-2.1-0.2-3.7,0.4c-2.1,0.7-4.1,2.1-5.9,3.7c-4.8,4.3-8.4,10-11.4,15.6c2-3.6,4.1-6.8,6.4-10c1.2-1.6,2.5-3,3.9-4.4
		c0.7-0.7,2.3-1.6,3-2.3c-1.1,1.2-3,2.5-4.1,3.6c-1.2,1.4-2.3,2.8-3.6,4.4c-2.3,3.2-4.4,6.8-6.4,10.3c-3.9,7.5-7.1,15.6-9.2,23.8
		c-1.1,3.7-2,7.6-2.3,11.6c-0.2,0.9-0.7,4.3,0.2,4.8c1.4,0.9,5.7-4.1,6.4-5c2.3-2.3,4.6-4.8,6.6-7.1c-0.4,0.4-0.7,0.9-1.1,0.7
		c-0.2,0,3.7-5.7,4.1-6.2l4.8-6.8c3.4-4.8,6.6-10,10-14.8c0.7-1.2,1.4-2.5,2.1-3.7c0.5-1.1,1.2-1.6,2-2.3s0.7-2,1.4-2.8
		c2.5-3,6.6-1.1,8.4,1.6C56.8,106.6,55.8,107.1,55.1,108z M10.4,147.3v0.4l0.2-1.8c0.2-3.2,0.9-6.6,1.6-9.8
		c1.6-6.4,3.6-13.2,5.9-19.4c2.3-5.9,4.8-11.6,8.2-16.9c1.6-2.8,3.7-5.9,6.4-8.2c-3,2.5-5.5,6-7.1,9.1c-3,5.3-5.9,10.5-8.4,16.2
		c-2.7,6.6-4.6,13.7-5.7,20.6C11.1,140.7,10.6,144.1,10.4,147.3z M19,117.8l-0.2,0.5L19,118V117.8z M33.4,91.5l1.2-0.9
		C34.1,90.8,33.7,91.1,33.4,91.5z M33.9,158.5c-0.2-1.1,0-2.1,0.2-3.2c0.2-2,0.5-3.7,0.7-5.5c0.2-1.6,0-3.2,0.2-4.8
		c-0.4,0.7-0.5,1.4-0.7,2c-0.5,2-0.5,3.7-0.5,5.9C33.5,154.8,33.7,156.5,33.9,158.5z M44.4,90.8L44,90C44,90.2,44.2,90.4,44.4,90.8z
		 M44.4,90.8l0.4,0.4C44.7,91.1,44.6,90.9,44.4,90.8z M46.7,124.4l-0.4,0.7L46.7,124.4z"/>
	<path class="st1" d="M92,136.3c0.4,3.2-4.6,5.7-6.6,7.3c-2.8,2.1-5.7,4.1-8.9,5.7c-0.7,0.4-2,0.7-2.8,1.4c-1.1,0.9-0.9,0.7-0.7,2.3
		c0.4,1.8,0.5,3.6,0.5,5.5c0.2,2.8-0.2,5.5-1.2,8.2c-2.3,6.2-7.1,10.1-14,10c-6-0.2-12.4-3.2-11.2-9.8c-0.2,0.2-0.4,2-0.5,1.8
		c-0.7-0.4,0-2.7,0.2-3c1.2-3.7,4.4-6.6,7.3-8.9c1.6-1.2,3.4-2.7,5-3.7c1.2-0.7,4.3-2,4.4-3.4c0.4-1.4-1.1-4.4-1.4-5.9
		c-0.4-2-1.1-3.9-1.2-5.9c-0.2-1.2,0.4-2.1,0-3.2c-0.5-1.6-1.1-3-1.1-4.8c0-1.8-0.2-3.4,0.5-5c0.7-2.3,6-7.8,8.7-5.3
		c0-0.5,1.2,1.4,1.4,2c0,0.4-0.4,4.1-1.1,3.9c0,0,0.2-0.9,0.4-1.6c-0.5,1.4-1.2,2.7-1.4,4.1c-0.2,1.2,0.2,2.8,0.4,3.9
		c0-0.2,0-0.4,0.2-0.5c-0.2,0,1.1,5.2,2,9.2c-0.7-2.7-1.6-5.9-2-7.8c0.7,4.4,1.8,8.7,2.8,12.8c0.2-0.2,0.2-0.4,0.2-0.7
		c0.2,0.4,0.2,0.5,0.2,0.5c4.4-2.1,8.4-4.3,12.4-6.8c1.8-1.2,3.7-3.2,5.5-4.1C91,134.7,91.9,134.9,92,136.3L92,136.3z M56.5,170.2
		l2.8-1.1c0.2,0.2-0.7,0.7-0.7,0.7c1.2-0.7,2.1-1.6,3-2.7l-0.5,0.4c0.7-0.7,2.7-4.8,2.8-5.2c0.7-2.3,0.7-4.8,0.5-7.1
		c-0.2,0.2-0.5,0.4-0.7,0.4l0.7-0.5l-1.2,0.7c0.5-0.2-1.2,1.2-1.6,1.4l-3,2c-2,1.4-4.1,2.8-5.7,4.8c-0.9,1.2-3.6,5.3-0.9,6.2
		C53.5,170.8,55.1,170.6,56.5,170.2z M69.6,168.1c-2.8,4.1-8,6.4-12.8,6.8c2.7-0.2,5.2-0.5,7.8-1.6C67.1,172,68.6,170.4,69.6,168.1z
		 M71.2,142.3c0.4,1.1,0.5,2.1,0.5,2.8C71.6,144.5,71.4,143.4,71.2,142.3z M73,154.9c0,0.2,0,0.4,0.2,0.5
		C73,155.3,73,155.1,73,154.9z"/>
	<path class="st1" d="M134.7,135.7c0.4-0.2-2.3,5.5-2.7,5.9c-1.4,2.3-3,4.8-4.6,7.1c-2.8,4.4-5.5,9.4-9.2,13.2c-1.4,1.2-2.3,2-4.3,2
		c-2.3-0.2-3.7-1.1-5.3-2.7c-0.4-0.4-3-2.7-2.7-3.2l0.5,0.9c-0.4-0.5-0.5-1.1-0.7-1.6v0.4c-0.4,0.4-1.1-3.2-1.1-3.7
		c-0.2-1.4,0.2-3,0.5-4.4c0.7-2.3,1.4-4.8,2-7.1c0.7-2.5,2-4.8,3.2-7.3c0.2-0.4,2.1-4.3,2.5-4.3c0,0.2-0.4,1.1-0.4,1.1l1.4-3.4
		l-0.4,0.4l2.8-6.9c-3.7,3-6.6,7.1-9.4,10.7c-1.4,1.6-2.7,3.7-4.4,5.2c-0.5,0.5-0.7,0.2-1.2,0.7c-0.4,0.5-0.7,1.2-1.1,1.8
		c-2.3,3.7-5.2,7.1-7.5,10.8l-1.8,3.2c-0.2,0.5-0.2,0.7-0.5,1.2c-1.2,1.4-3.6,0.9-4.6-0.5c-0.9-1.1-1.1-2.3-1.1-3.6
		c-0.4-4.4,0.5-9.1,1.4-13.3c1.6-9.2,3.9-18.7,7.1-27.7c2.7-8,6.8-15.3,10.7-22.8c0-0.2,0.5-2.1,1.1-2.5c-0.2,0.2-0.7,2-0.7,2
		l1.2-2.3c0,0-0.2,0-0.2-0.2c0-1.8,2.1-4.4,3.2-5.9c1.4-2.3,2.8-4.4,4.4-6.6c2.8-3.9,5.5-8.2,9.2-11c2-1.4,4.4-2.8,6.9-2.7
		c1.2,0,2.7,0.5,3.6,1.4c0.4,0.4,2.1,3.6,1.6,3.9l-0.5-1.4c0.4,1.4,0.4,3.2,0.4,4.8c0.2-0.2,0.2-0.4,0.2-0.4c0.5,0-1.6,9.1-2,10
		c-1.1,3.6-2.3,6.8-3.9,10.1c-3.4,6.9-7.5,14.4-12.4,20.3c-1.1,1.1-2.3,2-3.2,2.8c-1.1,1.1-1.6,2.5-2.7,3.7c-2.7,3-5.3,5.7-8.2,8.4
		c-1.6,1.6-2.3,2.5-3,4.6c-0.7,2.1-1.2,4.1-2,6.2c-1.2,3.9-2.5,8-3.6,11.9c1.6-2.7,3.6-5,5.3-7.5c-1.2,1.4-2.1,2.5-2.1,2.5
		c-0.2-0.2,12.3-15.3,13.5-16.7c3-3.2,8.4-10,12.8-4.6c2.5,3,0.5,6.8-0.9,9.8c-2.7,5.5-5.7,11.7-7.3,17.4c0.2-0.2,0.5-1.6,0.9-1.4
		c0.5,0.5-1.2,5.3-1.4,6.2c-0.2,0.7-0.7,3.9,0,4.4c1.2,0.9,3.6-1.8,4.4-2.7c3.6-3.6,6.8-7.3,10.1-11c1.2-1.4,2.3-3,3.7-4.4
		c0.4-0.4,1.1-1.2,1.4-1.2C134.2,135.2,135.4,135.7,134.7,135.7z M100.4,117.2c-0.2,0.5-0.5,2.1-0.4,2.1c-0.4-0.2,3.7-10.5,4.1-11.6
		c0.7-2.1,2-3.9,2.7-6c0.7-2.3,1.8-4.3,2.8-6.4c1.2-2.8,13.5-26.1,12.6-26.5c-0.2-0.2-9.8,18.1-10.7,20.1c-2,4.1-4.6,8.2-6.2,12.4
		c-1.8,5.2-4.3,10.1-5.2,15.6L100.4,117.2z M100.4,117.2l0.2-0.2C100.6,117.2,100.4,117.2,100.4,117.2z M125.3,68.5
		c-3.6,5.7-6.6,11.7-9.8,17.8c-2.8,5.5-5.9,11-8.2,16.5c0.4-0.5,0.5-1.1,0.7-1.1c0,0-2.1,5.9-2.3,6.4l-3,7.8
		c7.1-7.5,13.3-16,18.3-24.9c-2,3.2-4.1,6.6-6.2,9.6l-3.9,5.5l-1.8,1.8l0.7-0.9c1.1-1.2,2-2.3,2.8-3.6c1.6-2.3,3.4-4.8,5-7.3
		c3.2-5.2,6.2-10.5,8.7-16c1.2-2.8,2.3-5.9,3.2-8.9c0.4-1.4,1.6-5.7,0.4-6.8c-1.4-1.2-3.4,2.3-4.1,3.6c0.2-0.2,0,0.2-0.2,0.4v-0.2
		c0,0.2-0.2,0.2-0.2,0.2H125.3C125.5,68.5,125.3,68.5,125.3,68.5z M108,109.2c-0.4,0.4-0.5,0.7-0.7,0.9
		C107.5,109.8,107.9,109.4,108,109.2z M125.5,68.3L125.5,68.3L125.5,68.3L125.5,68.3z"/>
	<path class="st1" d="M169.4,137.2c-0.5,2.1-2,4.1-3,6.2c-3,4.8-5.5,9.8-8.9,14.6c-3.6,5.2-7.5,10.5-11.9,14.9
		c-3.9,3.7-9.2,6.6-13.9,2.3c-4.1-3.9-4.1-10.8-3.9-16c0.4-5.5,2-10.8,3.2-16.2c0.2-0.2,0-2.7,0.5-3.2c-0.2,0.2-0.2,0.9-0.2,1.4
		c0.2-0.7,0.4-1.4,0.7-2.1h-0.4c-0.4-2,1.1-5,1.6-6.9c0.7-2.3,1.4-4.6,2.3-6.9c1.4-4.3,3-8.4,4.4-12.6c1.2-4.3,3.2-8.4,5.3-12.3
		c0.9-2,2-3.7,3-5.7c0.4-0.5,2.5-4.8,3-4.6l-0.7,1.6l3.2-5.5l-0.2,0.2c0.5-0.7,1.2-2.3,1.6-2.8l2.3-3c1.4-1.6,3-4.1,5.3-4.8
		c4.4-1.4,8,3.2,8.5,7.1l0.2,0.2v0.5c0.5,6-3,13.2-5.7,18.3c-1.6,3.2-3.2,7.1-5.7,9.6c-1.6,2-2.7,3.9-3.9,6.2
		c-3.7,6-7.8,12.1-12.3,17.6c-1.1,1.4-1.8,2.3-2.3,4.1c-0.5,2-1.1,3.7-1.6,5.7c-0.5,2-1.1,3.9-1.6,5.9c-0.2,0.9-1.1,3.7-1.1,3.9
		c-0.4,1.2-0.5,2.5-0.5,3.7l0.7-3c0.5,0.7-0.4,3.7-0.4,4.6c-0.2,1.4-0.4,3-0.4,4.6c0,2,0,6.2,2.5,6.6c3.4,0.4,6.9-4.6,8.7-6.8
		c4.1-4.8,7.5-10.3,10.8-15.6c1.8-2.8,3.6-5.5,5.2-8.4c1.1-1.8,2-4.3,3.4-5.7C169.6,131.8,169.8,135.6,169.4,137.2z M132.9,142.9
		c-0.4,0-0.9,2.1-1.2,4.4v-0.2c-0.7,3.6-1.1,7.1-1.2,10.7l0.4-3.2v0.4c0-0.7,0.2-1.2,0.4-2c0.5-3,0.7-6.8,2-9.6c0,0,0-0.2,0.2-0.4
		C133.1,143,133.1,142.7,132.9,142.9z M145.4,125.8c7.3-11.7,15.6-24.2,20.1-37.5c-1.6,4.8-4.1,9.2-6.4,13.7c-1.4,2.5-2.7,5-4.1,7.5
		c-0.9,1.4-2.7,3.7-3.2,5.3c0.7-2.7,3.2-5.5,4.6-8l4.1-7.6c2.3-4.8,5.9-10.7,6.2-16.2v-0.2c0.2-5.3-4.3,0.7-5,1.8
		c-2.8,4.4-4.8,9.2-6.8,14C151.3,107.6,148.4,117.1,145.4,125.8z M148.8,98c-0.2,0.2-0.2,0.4-0.2,0.4c2.1-3.9,4.8-7.8,6.8-11.9
		c-1.1,1.8-2.8,3.4-3.7,5.3C150.5,94,149.7,95.9,148.8,98z"/>
	<path class="st1" d="M200.3,137l-3,4.1L192,148c-1.4,1.8-3,3.6-4.4,5.3c-1.4,2-2.8,4.1-4.4,5.9c-1.8,2-3.9,3.9-6.2,5.2
		c-1.6,0.9-3.2,1.1-5,0.5c-2.7-0.7-4.8-2.3-6.6-4.3c-0.5-0.5-1.1-1.1-1.1-2c-0.2-0.5-0.2-1.2-0.2-2c-0.2-1.2,0.4-2.1,0.5-3.2
		c0.2-1.2,0.7-2.5,1.1-3.7c0.2-1.4,0.5-2.7,0.7-3.9c0.2-1.2-0.2-2.5,0.2-3.7c0.2-0.7,0.7-1.6,1.1-2.5c-0.4,0.5-0.7,1.2-0.9,1.6
		c-0.4,0.7-0.5,1.6-0.7,2.3c-0.4,0.7-0.4,1.4-0.7,2.3c-0.4,0.9-0.7,1.6-0.9,2.7c-0.2,0.9,0,1.8-0.2,2.7c-0.2,0.9-0.4,1.6-0.4,2.5
		c0,0.4,0.2,0.9,0.2,1.1c0,0.4-0.2,0.9-0.2,1.4c0,0.9,0.2,1.8,0.4,2.8c-1.6-2.8-1.2-5.5-0.7-8.5c0.5-3,0.9-5.9,1.6-8.7
		c1.2-5.9,3.9-11.6,7.8-16.2c3-4.1,7.1-7.1,12.4-6.2c2,0.4,4.1,1.2,5.5,3c1.4,2,1.2,4.3,0.5,6.4c-1.2,3.9-4.6,6.9-7.6,9.6
		c-1.2,1.1-2.7,2.1-4.1,3c-1.1,0.5-2.1,1.1-3.2,1.4l-1.6,0.5c-0.7,0.2-0.7,0.2-1.1,0.7c-0.5,1.1-0.2,2-0.4,3
		c-0.2,1.2-0.5,2.5-0.7,3.7c-0.5,2.3-1.2,5.5-0.7,8c1.1,5,9.4-2.8,10.8-4.1c1.1-0.9,2-2,2.8-2.8c0.5-0.5,1.1-1.1,1.4-1.6
		c0,0,0.2-0.5,0.2-0.7c1.2-2,2.8-3.7,4.3-5.5c1.8-2.1,3.4-4.3,5-6.6c0.9-1.2,3-5,4.6-2.3v0.2c0.2,0.2,0.2,0.2,0.2,0
		C201,135.9,200.9,136.3,200.3,137z M174.7,139.3c3.2-1.6,6-3.9,8.4-6.6l1.6-2.1c0.4-0.5,0.7-0.7,1.1-1.4c0.2-0.5-0.2-0.9,0-1.4
		l0.4-2.1c0.2-1.1-0.4-3.6-1.8-3.2c-0.7,0.2-1.4,1.1-1.8,1.6l-1.8,2.3c-2.1,3-3.2,6.4-4.6,9.6c0,0,0,0.2-0.2,0.4
		C175.6,137.2,175.3,138.2,174.7,139.3z"/>
	<path class="st1" d="M248.5,139.7l-8.7,6.8c-3,2.5-6.2,5-9.1,7.6c-1.2,1.1-3.2,2.3-4.1,3.7c-1.1,1.4-1.4,4.4-2,6
		c-3.7,11.6-7.1,23.8-13.5,34.3c-2,3.2-3.6,6.6-7.6,7.5c-4.4,1.2-9.4-1.1-12.1-4.8c-3.9-5.2,0.4-11.2,3.6-15.5
		c3-4.1,6.2-8.2,9.6-11.9c2.5-2.7,5.2-5,7.8-7.5c2-2,5.2-4.1,6.4-6.4c1.6-3,2.1-7.1,3.2-10.3c0.7-2.8,1.6-5.5,2.5-8.4
		c-1.6,1.2-2.8,3.6-4.4,5l-6.6,6.6c-2.1,2.1-4.6,4.4-7.5,5.7c-0.5,0.2-4.1,1.8-4.3,1.6l0.2-0.2l-0.5,0.2c0.7,0-1.2,0.7-1.6,0.7
		c-1.1,0.2-2.3,0-3.2-0.5c-2-1.1-3.2-3.6-3.4-5.5c-0.2-0.7,0.4-7.1,1.2-6.9c0.2,0-0.2,0.5,0.2,0.7c0.2-0.7,0.2-1.4,0.4-2.1l-0.2,0.2
		c-0.5-0.2,3-10,3.2-10.8c0.7-2,1.4-4.1,2.5-6c0.4-0.5,0.9-0.7,1.2-1.4c0.2-0.2,0.5-0.9,0.7-1.2c1.1-2.3,3.9-3.7,6.2-2.7
		c1.1,0.4,2.7,1.8,2.3,3c-0.2,0.5-0.7,0.7-1.1,1.2c0.2,0,0.2-0.2,0.4-0.2c0.4,0.2-1.2,3.4-1.4,3.2c-0.2,0,0.2-0.7,0.2-1.2
		c-2.1,4.6-4.3,9.2-5.9,14.2c0.7-1.8,3.9-9.6,4.1-9.6c0.4,0.2-9.6,19.2-4.8,20.6c1.6,0.5,4.8-2.7,5.9-3.6c2.7-2.1,6-4.4,8.2-6.8
		c-0.2,0.2-0.4,0.4-0.7,0.4c0.2,0,4.8-5.7,5.5-6.4c1.6-2,4.6-4.1,5.3-6.6c0.4-1.4,0.5-2.3,2.7-2.8c2.3-0.4,5.9,0.7,6.4,3.4
		c0.2,1.2-0.4,2.1-0.9,3c-3,4.8-5.7,10.1-7.6,15.6c4.6-3.9,9.1-7.8,14-11.4c1.6-1.4,3.6-2.5,5.2-3.9c1.1-0.9,4.1-3.9,4.4-0.7
		C251.5,137.7,249.8,138.6,248.5,139.7z M216.5,166.9c-4.1,3.9-7.8,8-11.4,12.4c-3.4,4.3-7.3,8.9-8.9,14.2c-0.5,2.1-0.4,8.7,3.7,7.3
		c2.1-0.7,3.6-3.6,4.6-5.3c1.2-2.1,2.5-4.4,3.6-6.8c0,0,0.2-0.2,0.2-0.4c0,0,0-0.2,0.2-0.2l0,0l0.4-0.7v-0.2
		C211.7,180.6,214,173.6,216.5,166.9z M213.1,189.3l0.9-1.6c1.1-1.8,1.6-3.6,2.1-5.3c-0.7,1.2-1.4,2.5-1.8,3.7
		C214,187,213.7,188.2,213.1,189.3z M215.1,183l-0.4,0.5C214.9,183.4,214.9,183.2,215.1,183z M217.9,173.4c0.2,1.1-0.5,2.7-1.1,3.6
		c-0.4,0.5-0.5,1.6-0.7,2.5l1.8-4.4C218.1,174.7,217.9,174,217.9,173.4z"/>
</g>
<g class="st0">
	<path class="st1" d="M310.4,139.3c0.7,3.6,0,7.5-1.1,10.8c-3.7,11.7-14.6,19.9-25.4,24.7c-4.6,2.1-9.8,3.9-14.8,4.8
		c-3,0.5-6,0.7-9.1,0.2c-1.6-0.2-5.9-0.5-6.8-2c-1.1-1.2,0.2-1.1,1.2-1.2c2.8-0.5,5.7-0.9,8.4-1.8c6.4-2,12.4-4.8,18-8.2
		c5.3-3.2,10.1-6.8,14.2-11.4c2-2.1,3.7-4.6,4.8-7.1c0.5-1.2,1.8-5.3,1.2-5.9c-0.2-0.2-0.5-2-0.5-3c0.2,0.7,0.5,1.4,0.5,2
		c-0.2-1.1-0.4-2.1-0.7-3.2v0.4c-0.4-0.5-1.4-2-1.6-2c-0.9-0.9-2-1.2-3.2-1.4c-2.5-0.4-4.1,1.1-6.2,1.6c-2.5,0.7-9.8-3.9-6.9-6.2
		c1.2-1.1,3.4-1.4,4.8-2.3c2.5-1.8,4.8-3.7,7.1-5.9c2.3-2.3,4.4-4.8,6.4-7.5c0.5-0.7,3.7-6.2,4.1-6c0,0-0.7,1.8-0.7,2
		c1.1-2.1,2.1-4.1,3-6.4v-0.2l0.2-0.2l0.2-0.4c1.2-3,2.7-9.1-0.2-9.8c-1.8-0.5-3.9,2.1-5,3.2c-5.7,5.5-10.5,12.3-14.8,18.8
		c-2.5,3.7-4.8,7.5-7.1,11.4c-1.4,2.3-3.2,4.1-4.3,6.6c-3,7.3-6.4,14.2-8.7,21.7c-1.2,3.9-2,7.6-2.7,11.7l-0.4-0.5
		c-2.8,3-6.8,0.9-8.2-2.3c-1.4-3.2-0.7-8-0.5-11.6c0.2-4.1,0.4-8.4,1.4-12.4c0.4-1.6,1.1-3.2,1.6-4.8c0.2-0.4,0.4-3.6,0.7-3.6
		c0,0.2,0,0.2,0.2,0.4c0-0.2,0.2-0.4,0.2-0.7c-0.4,1.1-0.2-1.6,0-1.6c0.2-1.1,0.5-2.1,0.9-3.2c0.5-2,1.1-3.7,1.4-5.7
		c0.2-0.7,2.7-9.6,3.7-9.2c0.2,0.2-0.2,0.7-0.2,0.7l0.7-2.1c-0.4-0.2,4.4-10.7,4.8-11.6c1.8-3.2,3-6.6,5.9-8.9
		c1.8-1.4,3.9-5.7,7.3-4.4c1.4,0.5,3,2.8,3,4.4c0,1.2-0.5,1.4-1.2,2.1c0.2-0.2,0.4-0.2,0.5-0.2c0.2,0.2-2.3,3.6-2.7,3.4
		c-0.2,0,0.4-0.7,0.5-1.2c-3.6,4.8-6.4,10.1-8.7,15.8c1.1-2.1,5-10.5,5.7-10.8c-0.5,0.4-5.2,10.5-5.7,11.4c-1.6,3.9-3.2,8-4.4,12.1
		c-1.1,3.9-2,8-3,11.9c-0.9,3.2-2.1,6.8-2.7,10c0.2-0.2,0.2-0.4,0.4-0.5c0.2-0.2-0.4,4.6-0.4,5l-0.4,3.7
		c4.3-14.4,11.4-28.1,19.9-40.5c-3.2,4.6-6.2,9.2-8.9,14.2c-1.2,2.5-2.7,5-3.7,7.5c-0.9,1.8-2.8,4.6-3,6.4c0.2-1.6,1.6-3.7,2.3-5.2
		c0.7-2,1.6-3.7,2.7-5.5c1.6-3.2,3.6-6.6,5.3-9.8c4.1-6.6,8.7-13.2,13.7-19.2c2.3-3,5-5.9,7.6-8.5c2.1-2,5-5.2,8-5.7
		c5.5-0.9,9.1,4.8,9.6,9.6c1.8,14.2-10.7,29-23.1,34.5C302.3,129.2,309,132.4,310.4,139.3z M261.4,139.7c0.2-0.5,0.2-1.2,0.2-1.6
		c-0.5,1.1-1.2,2.1-1.4,3c-0.5,2.1-0.9,5-0.7,7.3c-0.2-1.4,0.2-3.7,0.7-5C260.6,142,261.2,140.9,261.4,139.7z M274.3,113.2
		c-0.2,0.2-0.2,0.4-0.2,0.5L274.3,113.2z M275.9,109.5c-0.2,0.2-0.2,0.4-0.2,0.4L275.9,109.5z M301.9,148.8l-0.5,1.2
		c-1.6,3.6-3.6,6.2-6,9.1l-3.4,3.6c1.2-0.9,2.7-1.4,4.1-2.7c1.4-1.2,3.2-3.2,3.9-5.2C300.7,153,301.7,150.4,301.9,148.8z
		 M292.5,101.8l0.7-0.7L292.5,101.8z M308.5,118c0.9-1.1,1.6-2,2.7-2.8c2.5-2.8,3.7-5.5,4.6-8.7c-1.1,2.1-2.5,4.4-3.6,6
		C311.2,114.4,309.9,116.2,308.5,118z"/>
	<path class="st1" d="M364.5,147.3c-1.2,3-2.8,5.7-4.4,8.4c-2,3-3.7,5.9-5.9,8.4c-1.8,2.3-4.3,5.2-7.3,5.7c-3.4,0.5-6-2.1-7.1-5.2
		c-2.3-5.9-0.7-11.9,1.1-17.6c0,0,0-0.9,0.2-1.6c-1.1,1.4-2.3,3.2-3.2,4.6c-1.2,2-2.1,3.7-3.4,5.5c-0.5,0.9-8.7,10.7-9.8,9.1
		c0,0,1.2-0.5,1.1-0.7c-1.2,0.7-2.8,1.1-4.1,0.5c0.4,0.2,0.5,0.4,0.4,0.4c-2.3,0.4-4.1-3.2-4.6-4.8c-0.7-2.8-0.5-5.9-0.2-8.7
		c1.1-5.7,3.6-11.9,6.8-16.9c0.9-1.2,1.8-2.5,3-3.6c0.7-0.7,1.4-0.7,2.3-1.4c1.4-1.2,2.8-2.3,5-2.3c4.8,0,6.8,5.5,7.8,9.2
		c2.3-3,6.6-7.1,10.3-2.7c2,2.3,0.7,4.1-0.4,6.4c-2,3.6-3.4,7.6-4.1,11.4c0.2-0.4,0.4-1.8,0.7-2c0.7-0.2-6.4,22.2,3.9,9.6
		c3-3.9,5.7-8,8.4-11.9c1.2-2,2.3-3.9,3.7-5.7c0.5-0.7,2.3-2.7,2.5-0.5C367.3,143.1,365.2,145.4,364.5,147.3z M339.2,139.9
		c0-0.7-2-6.2-1.4-6.6c0.2-0.2,1.1,2.8,1.1,3c-0.4-1.2-0.7-4.8-2.5-4.8c-3.2,0-5.7,6-6.8,8.4c-2,4.4-3.7,9.2-4.6,14
		c0.4-1.4,6-19.4,7.8-19.4c-1.4,0.4-6.6,15.6-6.9,16.9c-0.2,0.7-1.8,5.9-0.4,6.4c1.1,0.4,3.4-2.8,3.9-3.6c2-2.3,3.7-4.6,5.3-7.1
		l2.7-3.7c0.4-0.7,0.9-1.4,1.4-2.1C339.2,140.8,339.2,140.8,339.2,139.9z M339.6,139.3v1.1C339.8,139.9,339.8,139.7,339.6,139.3z
		 M341.9,144l-0.5,0.7c-0.2,0.4-0.4,1.6-0.4,1.6L341.9,144z"/>
	<path class="st1" d="M412.3,140.8c0.2,2.5-1.8,3.9-3.2,5.7c-1.4,1.8-2.8,3.7-4.4,5.3c-2,2.1-3.7,4.4-6,6c-0.2,0.2-4.6,2.7-5,3v-0.2
		c-0.7,0.5,0.5,0-0.7,1.1c-1.1,0.7-2.1,1.2-3.2,1.6c-1.2,0.5-2.5,1.4-3.9,1.6c-0.7,0-5-1.4-4.4-2.3c0.2-0.2,0.4,0.2,0.5,0.2
		c-0.5-0.4-0.9-0.7-1.2-1.2c0,0.2,0.2,0.4,0.2,0.4c-0.2,0.2-3-3.7-3.2-4.3c-1.1-1.8-1.8-4.1-2.1-6.2l-4.8,8c-1.2,1.8-1.6,5-3.9,5.5
		c-0.2,0-2.8,0.7-3.6-0.4c0.2,0.4,1.1,0.4,1.8,0.4c-0.7-0.2-1.8-0.4-2.3-0.7c0,0.2,0.2,0.2,0.2,0.2c0,0.2-1.6-1.2-2-1.4
		c-0.7-1.1-0.9-2.3-0.9-3.6c0-2.1,0.7-4.4,1.1-6.6c1.1-5,2.7-10,3.4-14.9c0.9-4.6,2.1-9.2,3.6-13.7c0.7-2.5,1.6-4.8,2.5-7.3
		c0.2-0.5,1.8-5.3,2.3-5.3l-0.5,2c0.7-2,1.2-3.9,2.1-5.9l0.2-0.2c0.4-0.7,0.5-2,0.9-2.8l2-4.1c1.1-2.3,2.1-4.6,3.6-6.8
		c2-3.6,4.6-7.3,8.4-9.1c4.6-2.1,8.7,1.6,10.8,5.7c1.1,2.3,1.4,4.1,0.5,6.4c-1.4,4.1-3.7,8.5-6.6,11.7c-2.3,2.5-3.7,6.4-5.7,9.2
		c-2.7,4.1-5.3,8.2-8.4,11.9c-1.2,1.6-2.7,3.4-4.1,5c-1.6,2-2.1,3.2-2.8,5.7c-1.4,4.6-2.7,9.2-3.7,14l2.7-4.6
		c0.2-0.4,1.8-2.7,1.8-2.5c0.5-1.1,1.2-2.1,2-3.2c-0.2,0.2-2,2.3-2,2.3c-0.2-1.2,2-3.7,2.7-4.6c1.1-1.8,2.3-3.6,3.6-5.3
		c2.7-3.6,5.5-7.1,8.9-10c3.6-3,10-8.2,14.4-4.4c4.6,3.9,1.6,8.9-2,12.3c-3.2,3-7.1,5.5-10.8,7.6c-2.1,1.2-4.1,2.3-6.4,3.2
		c-0.4,0.2-2,0.5-2.1,0.7c0,0.2,0.4,2.1,0.2,2.1s-0.4-0.4-0.4-0.5c0.5,3.6,1.8,7.3,4.1,10c-0.5-1.1-2.8-5.5-3-6.4
		c0.4,1.2,3.7,7.3,5,7.5c0.4,0.2,0.7,0,1.1,0c3.2-0.2,5.7-3.6,8-5.3c2.3-1.6,5.3-3.6,7.1-5.3c-0.2,0.2-0.5,0.2-0.7,0.2
		c-0.4-0.5,6.2-7.6,6.6-8.2C411.1,139.5,412.3,139,412.3,140.8L412.3,140.8z M374.3,107.7L374.3,107.7
		C374.5,107.5,374.5,107.7,374.3,107.7z M374.3,107.7L374.3,107.7L374.3,107.7z M376.2,126.7c0,0.2-0.2,0.2-0.2,0.2L376.2,126.7
		l-0.2,0.9c1.2-5,2.8-9.8,4.4-14.8c1.4-4.1,2.5-8.4,4.1-12.4c0.2-0.5,1.6-2.8,2.1-4.1c-0.5,0.9-1.4,2.1-1.6,2.5
		c-1.4,3-2.5,5.9-3.7,8.9C379.1,113.7,377.5,120.5,376.2,126.7z M382.5,109.8c-2.3,6.4-4.3,12.8-6,19.2c5.5-7.1,10.5-14.6,14.9-22.6
		c1.1-2,2.1-3.9,3.2-6c-0.9,1.6-1.6,3-2.5,4.4c-1.4,2.8-3,5.5-4.8,8.2l-2.1,3.6c-0.5,0.5-1.2,1.4-1.6,2.1c0.5-1.4,2-2.8,2.8-4.4
		l2.5-4.3c2-3.2,3.7-6.4,5.3-9.8c1.1-2.3,4.1-8,2.3-10.3c-1.8-2.3-4.6,1.1-5.7,2.5C387.1,97.6,384.8,104,382.5,109.8z M394.2,133.5
		c0.7-0.9,6.4-7.3,4.8-8.5c-1.6-1.2-6.6,4.4-7.5,5.5c-3.9,4.1-7.3,8.5-10.5,13.2C386,141.5,390.5,137.4,394.2,133.5z"/>
	<path class="st1" d="M442.7,142.2l-3,4.1l-5.3,6.9c-1.4,1.8-3,3.6-4.4,5.3c-1.4,2-2.8,4.1-4.4,5.9c-1.8,2-3.9,3.9-6.2,5.2
		c-1.6,0.9-3.2,1.1-5,0.5c-2.7-0.7-4.8-2.3-6.6-4.3c-0.5-0.5-1.1-1.1-1.1-2c-0.2-0.5-0.2-1.2-0.2-2c-0.2-1.2,0.4-2.1,0.5-3.2
		c0.2-1.2,0.7-2.5,1.1-3.7c0.2-1.4,0.5-2.7,0.7-3.9c0.2-1.2-0.2-2.5,0.2-3.7c0.2-0.7,0.7-1.6,1.1-2.5c-0.4,0.5-0.7,1.2-0.9,1.6
		c-0.4,0.7-0.5,1.6-0.7,2.3c-0.4,0.7-0.4,1.4-0.7,2.3c-0.4,0.9-0.7,1.6-0.9,2.7c-0.2,0.9,0,1.8-0.2,2.7c-0.2,0.9-0.4,1.6-0.4,2.5
		c0,0.4,0.2,0.9,0.2,1.1c0,0.4-0.2,0.9-0.2,1.4c0,0.9,0.2,1.8,0.4,2.8c-1.6-2.8-1.2-5.5-0.7-8.5c0.5-3,0.9-5.9,1.6-8.7
		c1.2-5.9,3.9-11.6,7.8-16.2c3-4.1,7.1-7.1,12.4-6.2c2,0.4,4.1,1.2,5.5,3c1.4,2,1.2,4.3,0.5,6.4c-1.2,3.9-4.6,6.9-7.6,9.6
		c-1.2,1.1-2.7,2.1-4.1,3c-1.1,0.5-2.1,1.1-3.2,1.4l-1.6,0.5c-0.7,0.2-0.7,0.2-1.1,0.7c-0.5,1.1-0.2,2-0.4,3
		c-0.2,1.2-0.5,2.5-0.7,3.7c-0.5,2.3-1.2,5.5-0.7,8c1.1,5,9.4-2.8,10.8-4.1c1.1-0.9,2-2,2.8-2.8c0.5-0.5,1.1-1.1,1.4-1.6
		c0,0,0.2-0.5,0.2-0.7c1.2-2,2.8-3.7,4.3-5.5c1.8-2.1,3.4-4.3,5-6.6c0.9-1.2,3-5,4.6-2.3v0.2c0.2,0.2,0.2,0.2,0.2,0
		C443.6,141.1,443.3,141.5,442.7,142.2z M417.3,144.5c3.2-1.6,6-3.9,8.4-6.6l1.6-2.1c0.4-0.5,0.7-0.7,1.1-1.4c0.2-0.5-0.2-0.9,0-1.4
		l0.4-2.1c0.2-1.1-0.4-3.6-1.8-3.2c-0.7,0.2-1.4,1.1-1.8,1.6l-1.8,2.3c-2.1,3-3.2,6.4-4.6,9.6c0,0,0,0.2-0.2,0.4
		C418,142.4,417.8,143.4,417.3,144.5z"/>
	<path class="st1" d="M475.5,144.9c-0.7,1.6-1.8,3.2-2.8,4.8c-2.3,3.4-4.8,6.8-7.1,10.1c-2.3,3.2-5,6.6-8.2,9.2
		c-0.5,0.4-5.2,4.1-5.5,3.9c0-0.2,0.2-0.2,0.2-0.4l-0.7,0.4c0.5-0.2-1.4,1.2-2,1.4c-1.4,0.4-2.8-0.2-4.1-0.9c-1.2-0.7-2-2-2.7-3.4
		c-1.1-2.1-1.1-4.3-0.7-6.6c0.2-0.5,1.4-6.2,2.1-6.2c0.2,0-0.2,0.7-0.2,0.9l0.7-2.5c-0.4-0.2,5-11.2,5.5-11.9
		c-3,0.5-6.8,0.5-8.9-2.1c-0.5-0.7-0.4-1.4-0.5-2.1c-0.4-0.7-0.7-1.2-0.9-2c-1.1-4.8,4.6-11.6,9.4-8.4l-0.2-0.4
		c0.2-0.5,1.2,0.9,1.4,1.4c0,0.4-0.7,3.2-1.2,3c-0.2,0,0.5-1.8,0.5-2c-0.7,2-2.8,3.9-3,5.9c-0.2,1.4,0.5,1.4,2,1.8
		c2,0.5,4.8,0.2,7.3,0.9c-1.6-0.5-3.6-0.5-4.8-0.7c0,0-0.2,0-0.2-0.2c1.4,0.2,3,0.2,4.4,0.5c2.8,0.7,4.6,1.8,3.6,4.8
		c-1.2,2.8-2.7,5.7-3.9,8.7c-1.2,2.8-2.1,5.7-3.2,8.7c-0.4,1.1-2.5,5.2-1.6,6.2c1.1,1.2,6.4-3.7,8-5.3c-0.4,0.4-0.5,0.4-0.7,0.5
		c-0.2,0,2-2.8,2.3-3.2l2.8-3.7l5.3-7.1l5.5-7.3c0.5-0.5,2.8-4.1,3.6-1.4C476.9,142,476,143.8,475.5,144.9z M444.7,171.7
		c-0.2-0.2-0.2-0.2-0.2-0.4l0.2,0.2c-0.5-1.1-1.1-2.1-1.2-2.8l0.4,1.2l-0.4-2.1v-0.2c-0.2-0.2-0.2-0.4-0.2-0.4s0,0.2,0.2,0.2v-0.5
		c-0.2-1.4,0-2.7,0.2-3.9v-0.2c-0.2,0.9-0.4,1.6-0.4,2.7c-0.2,1.2,0,2.7,0.4,3.7c0.2,0.4,0.9,2,1.4,2.8c0-0.2,0-0.2-0.2-0.2
		c0.5,0.5,1.4,1.1,2.3,1.4C445.9,173.1,445.2,172.4,444.7,171.7L444.7,171.7z M443.4,163L443.4,163l0.2-0.2
		C443.6,163,443.4,163,443.4,163z M443.8,161.2c0,0.2-0.2,0.4-0.2,0.4C443.6,161.4,443.8,161.4,443.8,161.2z M444,161.2
		c0.7-2.7,1.8-5,2.8-7.5l2-4.4c0.5-0.9,2.7-5.7,3-6c-0.7,0.2-2.1,3.7-2.3,4.1c-0.9,1.6-1.6,3.4-2.3,5.2
		C445.8,155.3,444.7,158.2,444,161.2z M444.2,170.8c0-0.2-0.2-0.2-0.2-0.2C444,170.8,444.2,170.8,444.2,170.8z M447,137.9L447,137.9
		L447,137.9z M447,138.1c0.2,0.2,0.7,0.7,0.7,0.7c0.5,0.4,1.2,0.5,2,0.7c-0.9-0.2-1.8-0.2-2.3-0.5C447.2,138.8,447,138.3,447,138.1z
		 M457.9,146.5l-2.1,4.4L457.9,146.5L457.9,146.5z M457.9,146.5L457.9,146.5L457.9,146.5L457.9,146.5z M457.9,146.5L457.9,146.5
		L457.9,146.5L457.9,146.5z"/>
</g>
<polygon class="st2" points="184,179.2 187.7,179.2 187.7,179.2 "/>
</svg>
